<svg width="144" height="106" viewBox="0 0 144 106" fill="none" xmlns="http://www.w3.org/2000/svg" xmlns:xlink="http://www.w3.org/1999/xlink">
<path d="M4.706,104.873C3.458,104.873 2.261,104.378 1.378,103.495C0.496,102.613 0,101.416 0,100.167L0,34.967C0.025,33.736 0.532,32.564 1.412,31.703C2.291,30.841 3.474,30.358 4.705,30.358C5.936,30.358 7.119,30.841 7.998,31.703C8.878,32.564 9.385,33.736 9.41,34.967L9.41,100.167C9.41,101.415 8.914,102.612 8.032,103.494C7.15,104.377 5.954,104.873 4.706,104.873Z" fill="#000000"/>
<path d="M105.562,83.158C104.314,83.158 103.117,82.662 102.234,81.779C101.352,80.897 100.856,79.7 100.856,78.452L100.856,4.71C100.881,3.479 101.388,2.306 102.268,1.445C103.147,0.583 104.33,0.101 105.561,0.101C106.792,0.101 107.975,0.583 108.854,1.445C109.734,2.306 110.24,3.479 110.266,4.71L110.266,78.458C110.264,79.704 109.768,80.899 108.886,81.781C108.004,82.662 106.809,83.157 105.562,83.158Z" fill="#000000"/>
<path d="M138.406,83.157C137.158,83.157 135.961,82.661 135.078,81.779C134.196,80.896 133.7,79.699 133.7,78.451L133.7,34.973C133.725,33.742 134.232,32.57 135.112,31.708C135.991,30.847 137.174,30.364 138.405,30.364C139.636,30.364 140.819,30.847 141.698,31.708C142.578,32.57 143.084,33.742 143.11,34.973L143.11,78.451C143.11,79.699 142.614,80.896 141.732,81.778C140.85,82.661 139.654,83.157 138.406,83.157Z" fill="#000000"/>
<path d="M55.134,82.68C50.036,82.68 45.052,81.169 40.813,78.337C36.574,75.505 33.27,71.479 31.319,66.769C29.367,62.059 28.857,56.877 29.851,51.877C30.845,46.876 33.3,42.283 36.905,38.678C40.51,35.073 45.102,32.618 50.103,31.623C55.103,30.629 60.285,31.139 64.996,33.09C69.706,35.041 73.731,38.344 76.564,42.583C79.396,46.822 80.908,51.806 80.908,56.904C80.902,63.738 78.184,70.29 73.352,75.123C68.52,79.955 61.968,82.673 55.134,82.68ZM55.134,39.68C51.727,39.68 48.397,40.69 45.565,42.583C42.732,44.475 40.525,47.165 39.221,50.313C37.917,53.46 37.576,56.923 38.241,60.264C38.905,63.605 40.546,66.674 42.955,69.083C45.364,71.492 48.433,73.132 51.774,73.797C55.115,74.462 58.578,74.12 61.725,72.817C64.873,71.513 67.563,69.306 69.455,66.473C71.348,63.641 72.358,60.311 72.358,56.904C72.353,52.337 70.536,47.96 67.307,44.731C64.078,41.502 59.7,39.685 55.134,39.68Z" fill="#000000"/>
</svg>
